:SAMPLES-PER-SECOND 30
:FULLY-SPECIFIED
:DEGREES
362
root  -23.9154 26.8067 5.6952 -151.393 -4.30288 177.391
RightUpLeg  -29.6225 -6.03613 -21.431
RightLeg  57.4403 -13.4533 -17.6571
RightFoot  -17.6746 1.39548 9.3357
RightToes  -25.1272 -0.111846 -0.216714
Spine  21.6354 0.328213 -2.27435
Spine1  34.8884 4.09122 -4.2164
HEad  -11.5259 -18.5988 37.9401
LeftShoulder1  0 -2.42657e-020 -4.95415e-022
LeftArm  -35.3033 -37.5038 -76.4057
LeftForeArm  7.26225 -40.8841 -8.77379
LeftHand  0.908618 -5.36935 -19.5909
RightShoulder  0 2.42657e-020 1.07489e-018
RightArm  -37.3031 37.2048 91.5944
RightForeArm  49.2468 21.6177 3.97764
RightHand  -2.73754 26.386 -11.2726
LeftUpLeg  -80.2243 17.186 -1.54874
LeftLeg  66.5434 -4.42162 -8.56708
LeftFoot  -0.82781 0.00153109 0.211932
LeftToes  -32.4313 2.34596e-006 -6.06653e-008
363
root  -24.5869 27.6202 4.82334 -151.588 -4.37137 177.489
RightUpLeg  -30.6424 -8.282 -19.225
RightLeg  55.4058 -12.3849 -15.2517
RightFoot  -17.3745 1.17338 8.04615
RightToes  -28.0722 -0.130874 -0.238347
Spine  20.5831 0.851048 -1.83815
Spine1  33.696 4.37322 -3.23326
HEad  -12.1521 -20.6819 40.7605
LeftShoulder1  0 -2.42657e-020 -4.95415e-022
LeftArm  -35.7843 -34.3867 -76.7545
LeftForeArm  7.10073 -46.1677 -10.583
LeftHand  1.09629 -6.35733 -19.9405
RightShoulder  0 2.42657e-020 1.07489e-018
RightArm  -37.3528 32.2269 90.4551
RightForeArm  47.5679 23.5893 4.38937
RightHand  -2.45343 27.4922 -9.63744
LeftUpLeg  -76.9664 17.5751 -3.04345
LeftLeg  64.3591 -4.93397 -8.71786
LeftFoot  -1.85146 0.00785444 0.486076
LeftToes  -30.977 2.34596e-006 -6.06653e-008
364
root  -25.2143 28.4351 3.99193 -152.122 -3.94546 177.731
RightUpLeg  -32.5519 -12.1165 -16.421
RightLeg  54.0499 -12.2637 -14.4267
RightFoot  -15.8404 0.937679 7.11031
RightToes  -29.5057 -0.140532 -0.248516
Spine  19.5766 1.2625 -1.32046
Spine1  32.5173 4.96947 -3.12954
HEad  -11.7228 -21.6149 42.2194
LeftShoulder1  0 -2.42657e-020 -4.95415e-022
LeftArm  -37.7806 -32.1565 -76.9897
LeftForeArm  8.35648 -52.4215 -13.2613
LeftHand  1.29447 -7.29788 -20.4798
RightShoulder  0 2.42657e-020 1.07489e-018
RightArm  -38.0475 28.2049 90.4781
RightForeArm  46.366 25.0716 4.70724
RightHand  -1.97658 27.1146 -7.81556
LeftUpLeg  -72.7565 17.3631 -3.28886
LeftLeg  61.476 -4.90669 -7.7441
LeftFoot  -2.71303 0.0142517 0.60183
LeftToes  -30.0088 2.34596e-006 -6.06653e-008
365
root  -25.7755 29.1947 3.16665 -153.299 -3.35232 177.891
RightUpLeg  -34.5335 -13.6214 -13.722
RightLeg  53.5926 -12.6781 -14.6534
RightFoot  -14.9428 0.832867 6.72226
RightToes  -27.5769 -0.127596 -0.234777
Spine  19.1443 1.29036 -0.876264
Spine1  32.1843 4.66995 -2.75088
HEad  -10.9872 -21.7566 43.2578
LeftShoulder1  0 -2.42657e-020 -4.95415e-022
LeftArm  -39.9909 -31.516 -75.6655
LeftForeArm  13.0703 -59.7261 -17.6321
LeftHand  1.55416 -7.93725 -22.5133
RightShoulder  0 2.42657e-020 1.07489e-018
RightArm  -38.235 25.5795 90.9488
RightForeArm  45.6209 26.9318 5.11633
RightHand  -2.26257 28.4046 -8.55495
LeftUpLeg  -67.4868 16.2925 -2.58451
LeftLeg  58.1361 -4.19837 -5.86007
LeftFoot  -3.59442 0.0177035 0.564195
LeftToes  -29.0023 2.34596e-006 -6.06653e-008
366
root  -26.2675 29.8937 2.36359 -154.394 -2.1993 177.918
RightUpLeg  -37.4779 -12.8298 -11.2964
RightLeg  53.2439 -11.48 -13.1873
RightFoot  -14.2601 0.669484 5.72606
RightToes  -31.2099 -0.152341 -0.260286
Spine  18.9219 1.16445 -0.532726
Spine1  32.018 3.81226 -1.91967
HEad  -10.3436 -22.2636 43.8049
LeftShoulder1  0 -2.42657e-020 -4.95415e-022
LeftArm  -41.6065 -32.8489 -73.7669
LeftForeArm  19.0462 -64.3302 -21.616
LeftHand  1.72954 -8.22252 -24.1088
RightShoulder  0 2.42657e-020 1.07489e-018
RightArm  -37.753 23.8125 91.0969
RightForeArm  43.3747 29.2729 5.65352
RightHand  -2.41093 28.5164 -9.09908
LeftUpLeg  -62.3636 15.6686 -2.2904
LeftLeg  54.6619 -3.24993 -4.0105
LeftFoot  -4.32306 0.016022 0.424484
LeftToes  -27.6877 2.34596e-006 -6.06653e-008
367
root  -26.7242 30.4554 1.57391 -155.502 -0.456563 178.096
RightUpLeg  -41.7803 -11.1401 -8.47307
RightLeg  53.2545 -7.05911 -8.25968
RightFoot  -13.2782 0.368751 3.54503
RightToes  -37.6682 -0.200129 -0.301575
Spine  18.5954 1.01251 0.0138023
Spine1  31.56 2.83421 -0.723561
HEad  -8.74025 -23.29 42.8103
LeftShoulder1  0 -2.42657e-020 -4.95415e-022
LeftArm  -41.9758 -34.619 -72.5004
LeftForeArm  23.5158 -66.2387 -23.7312
LeftHand  1.7818 -8.14644 -25.0271
RightShoulder  0 2.42657e-020 1.07489e-018
RightArm  -37.0871 22.734 90.7056
RightForeArm  41.7156 30.909 6.04411
RightHand  -2.62666 28.6297 -9.89995
LeftUpLeg  -57.7668 15.9085 -2.1437
LeftLeg  51.9775 -2.39169 -2.68917
LeftFoot  -5.04053 0.0114485 0.260093
LeftToes  -27.0511 2.34596e-006 -6.06653e-008
